<?xml version="1.0" standalone="no"?>
<!DOCTYPE svg PUBLIC "-//W3C//DTD SVG 20010904//EN"
 "http://www.w3.org/TR/2001/REC-SVG-20010904/DTD/svg10.dtd">
<svg version="1.0" xmlns="http://www.w3.org/2000/svg"
 width="1000.000000pt" height="1000.000000pt" viewBox="0 0 1000.000000 1000.000000"
 preserveAspectRatio="xMidYMid meet">

<g transform="translate(0.000000,1000.000000) scale(0.100000,-0.100000)"
fill="#000000" stroke="none">
<path d="M4880 9160 c-420 -72 -906 -381 -1462 -928 l-116 -115 -7 69 c-22
230 -72 435 -138 558 -40 75 -127 165 -188 194 -133 64 -299 41 -395 -55 -81
-81 -108 -186 -102 -393 6 -157 25 -265 83 -467 19 -65 33 -118 32 -120 -1 -1
-44 9 -96 23 -249 65 -414 32 -478 -96 -30 -59 -31 -156 -2 -220 42 -93 188
-192 344 -235 33 -9 66 -18 74 -21 9 -3 1 -18 -27 -48 -22 -24 -68 -81 -102
-126 -222 -300 -287 -563 -216 -875 55 -237 167 -536 294 -780 l57 -110 -78
-74 c-176 -168 -267 -382 -267 -633 0 -306 147 -585 386 -731 210 -127 479
-128 689 -2 32 20 60 33 63 31 2 -3 19 -41 37 -85 36 -88 78 -166 137 -253 21
-31 38 -61 38 -65 0 -4 -30 -24 -68 -43 -41 -21 -92 -60 -132 -100 -191 -191
-199 -475 -21 -744 18 -27 22 -41 13 -44 -6 -2 -45 -25 -84 -51 -500 -330
-1059 -1308 -1292 -2264 -22 -89 -76 -341 -76 -353 0 -2 31 -4 70 -4 l69 0 7
37 c28 170 117 506 186 708 94 279 244 617 390 880 82 149 248 398 346 520
106 133 281 301 376 364 106 69 111 70 155 28 61 -59 185 -142 284 -191 125
-61 149 -65 181 -33 53 53 33 81 -107 150 -250 122 -421 297 -487 497 -32 95
-26 223 13 303 37 74 110 145 196 191 l69 36 123 -124 c331 -330 734 -541
1194 -627 159 -30 442 -37 599 -15 497 70 974 333 1268 700 44 55 82 103 84
105 7 8 103 -56 151 -102 93 -88 136 -191 135 -327 0 -159 -69 -317 -192 -440
-41 -41 -90 -87 -107 -102 -38 -30 -44 -75 -15 -101 29 -27 70 -20 122 18 l48
35 30 -37 c48 -61 135 -201 190 -303 225 -422 551 -1308 752 -2047 l34 -123
68 0 c40 0 68 4 68 10 0 19 -90 340 -150 535 -293 951 -645 1772 -868 2026
l-31 36 37 49 c49 65 105 182 128 264 12 44 18 102 18 180 1 178 -42 288 -159
411 -44 46 -144 120 -178 132 -9 3 -9 7 0 18 6 8 36 64 66 124 64 127 133 322
170 480 166 704 49 1643 -309 2479 -35 82 -64 152 -64 156 0 3 36 35 81 70
148 117 270 302 321 487 32 115 32 346 0 456 -97 337 -356 577 -702 650 -125
26 -351 28 -502 3 -60 -9 -112 -15 -117 -12 -4 3 -11 20 -15 37 -10 50 -82
196 -130 264 -98 136 -259 248 -421 291 -71 19 -295 27 -375 14z m390 -163
c210 -74 355 -247 420 -502 13 -50 25 -75 43 -88 24 -19 26 -19 109 2 194 48
440 52 605 12 161 -40 336 -152 429 -273 260 -344 185 -831 -170 -1096 l-29
-22 -55 97 c-63 113 -115 192 -184 280 l-48 62 59 40 c84 58 171 140 171 163
0 51 -52 88 -93 66 -12 -6 -44 -30 -72 -53 -225 -188 -497 -290 -810 -302
-286 -11 -609 56 -884 183 -52 24 -105 44 -118 44 -13 0 -56 -22 -96 -49 -156
-105 -325 -184 -473 -221 -124 -31 -265 -26 -346 13 -46 22 -62 25 -82 17 -45
-17 -52 -49 -27 -133 47 -159 45 -315 -5 -408 -28 -51 -86 -98 -147 -120 -44
-16 -62 -8 -92 39 -11 17 -33 36 -48 43 -24 10 -32 9 -55 -8 -15 -11 -28 -29
-30 -40 -2 -11 15 -80 38 -154 78 -258 113 -473 113 -689 0 -201 -34 -353
-104 -476 l-29 -52 -65 43 c-36 23 -102 55 -148 70 -111 38 -313 46 -424 17
l-73 -18 -65 132 c-125 255 -219 511 -267 726 -28 126 -30 273 -5 365 55 199
199 427 386 607 65 62 74 88 44 125 -13 15 -41 25 -103 36 -285 49 -443 157
-409 281 25 89 199 86 466 -8 96 -33 120 -38 139 -29 50 23 49 43 -10 221 -97
292 -138 528 -117 678 16 124 51 180 128 208 81 28 155 11 223 -52 113 -105
175 -310 200 -655 6 -85 15 -164 21 -177 10 -26 53 -45 82 -36 11 4 104 88
206 187 523 506 889 765 1252 886 128 42 187 51 334 47 120 -2 150 -7 215 -29z
m-493 -1587 c282 -114 527 -164 808 -164 233 0 416 36 608 119 l78 33 42 -56
c380 -515 665 -1335 728 -2100 15 -178 6 -566 -15 -710 -40 -267 -103 -476
-206 -687 -110 -224 -247 -402 -418 -546 -282 -235 -607 -383 -952 -435 -122
-18 -368 -20 -497 -4 -620 77 -1246 496 -1514 1013 -57 111 -102 234 -92 251
4 6 23 31 42 56 46 60 121 217 121 252 0 49 -47 80 -94 62 -9 -3 -39 -54 -67
-113 -45 -92 -63 -117 -138 -192 -127 -127 -223 -168 -392 -169 -151 0 -270
51 -384 165 -82 83 -135 169 -172 280 -38 115 -44 306 -14 426 66 265 261 462
488 492 160 21 328 -29 447 -133 31 -27 67 -50 79 -50 51 0 161 160 212 310
81 237 71 614 -24 978 l-19 72 26 6 c97 21 192 79 245 149 57 74 79 144 84
265 3 58 1 128 -5 157 l-9 52 77 -6 c198 -15 484 78 725 236 33 22 65 40 70
40 6 1 65 -21 132 -49z"/>
<path d="M4456 6174 c-63 -20 -147 -102 -164 -160 -55 -186 67 -358 253 -357
192 2 322 212 236 381 -60 118 -200 176 -325 136z"/>
<path d="M5996 5615 c-254 -21 -271 -24 -288 -45 -25 -31 -23 -62 6 -90 l25
-22 321 25 c354 28 360 30 360 92 0 48 -26 65 -96 64 -32 -1 -180 -11 -328
-24z"/>
<path d="M2700 4990 c-50 -50 -6 -120 77 -120 114 0 182 -94 183 -252 0 -74 3
-91 20 -108 26 -26 72 -26 96 1 30 33 27 203 -6 284 -31 80 -124 174 -194 198
-70 24 -151 22 -176 -3z"/>
<path d="M7570 6351 c-85 -18 -165 -82 -197 -160 -24 -55 -20 -156 7 -213 25
-54 85 -113 139 -135 48 -21 156 -20 204 1 139 61 201 230 134 362 -55 109
-174 169 -287 145z"/>
<path d="M6732 1689 c-46 -17 -48 -49 -9 -141 86 -202 210 -683 358 -1391 l34
-157 67 0 c38 0 68 4 68 9 0 14 -121 573 -165 761 -96 416 -198 765 -253 864
-29 53 -60 70 -100 55z"/>
<path d="M3616 1558 c-68 -104 -247 -762 -381 -1400 l-33 -158 68 0 c57 0 70
3 74 18 3 9 21 91 40 182 89 426 206 881 292 1138 30 90 54 173 54 186 0 53
-85 78 -114 34z"/>
</g>
</svg>
